<svg id="Layer_3" data-name="Layer 3" xmlns="http://www.w3.org/2000/svg" viewBox="0 0 128 128"><title>Artboard 100</title><path d="M18.121,117.823h91.758a1.794,1.794,0,0,0,1.794-1.794V11.971a1.794,1.794,0,0,0-1.794-1.794H48.71a1.794,1.794,0,0,0-1.794,1.794V32.88H18.121a1.794,1.794,0,0,0-1.794,1.794v81.354A1.794,1.794,0,0,0,18.121,117.823Zm40.145-3.588H39.782V102.268H58.266Zm49.819-77.766V54.952h-27V36.468Zm-27,22.072h27V73.557h-27Zm0,18.6h27V92.161h-27Zm0,37.089V95.749h27v18.486ZM50.5,13.766h57.581V32.88H50.5Zm-30.589,22.7H77.5v77.766H61.854v-13.76A1.794,1.794,0,0,0,60.06,98.68H37.987a1.793,1.793,0,0,0-1.794,1.794v13.76H19.915Z"/><path d="M25.476,56.541H72.567a1.794,1.794,0,0,0,1.794-1.794V41.293A1.794,1.794,0,0,0,72.567,39.5H25.476a1.794,1.794,0,0,0-1.794,1.794V54.746A1.794,1.794,0,0,0,25.476,56.541Zm17.561-3.588V43.087H54.374v9.866Zm27.737,0H57.962V43.087H70.773Zm-43.5-9.866H39.449v9.866H27.27Z"/><path d="M25.164,76.437H72.256a1.794,1.794,0,0,0,1.794-1.794V61.191A1.794,1.794,0,0,0,72.256,59.4H25.164a1.794,1.794,0,0,0-1.794,1.794V74.643A1.794,1.794,0,0,0,25.164,76.437Zm17.557-3.588V62.985H54.062v9.864Zm27.74,0H57.651V62.985H70.462Zm-43.5-9.864H39.133v9.864H26.958Z"/><path d="M72.256,96.333a1.794,1.794,0,0,0,1.794-1.794V81.087a1.794,1.794,0,0,0-1.794-1.794H25.164a1.794,1.794,0,0,0-1.794,1.794V94.539a1.794,1.794,0,0,0,1.794,1.794ZM42.721,92.745V82.881H54.062v9.864Zm27.74,0H57.651V82.881H70.462Zm-43.5-9.864H39.133v9.864H26.958Z"/></svg>